<svg width="174" height="122" viewBox="0 0 174 122" fill="none" xmlns="http://www.w3.org/2000/svg">
<path d="M61.0501 8.82717C61.2533 8.1941 61.6006 7.61676 62.0645 7.14049C62.5284 6.66422 63.0965 6.30198 63.724 6.08222C64.2407 5.90783 64.8349 5.79158 65.1255 5.33947C65.2876 4.98896 65.3881 4.61318 65.4226 4.22857C65.5064 3.9472 65.6457 3.68549 65.8324 3.4589C66.0191 3.23231 66.2493 3.04544 66.5094 2.90935C66.7695 2.77327 67.0543 2.69072 67.3469 2.6666C67.6395 2.64247 67.9339 2.67725 68.2128 2.7689C68.4673 2.91 68.7452 3.00409 69.0331 3.04664C70.215 3.04664 70.3894 0.811911 71.5713 0.857122C71.2232 1.2254 70.9976 1.69243 70.9255 2.19408C70.8966 2.44359 70.9522 2.69557 71.0833 2.90981C71.2144 3.12404 71.4135 3.28818 71.6488 3.37602C72.9018 3.71833 73.5025 1.28985 74.7878 1.4384C75.4853 1.52237 75.9956 2.38784 76.6802 2.23283C76.9354 2.14042 77.1717 2.00256 77.3777 1.82593C77.7724 1.59709 78.2392 1.5265 78.684 1.62839C79.1287 1.73028 79.5182 1.99707 79.7739 2.37492C80.1808 3.0208 80.2454 4.06064 80.9946 4.26732C81.234 4.29551 81.4766 4.27205 81.7061 4.19851C81.9356 4.12498 82.1467 4.00308 82.3251 3.84104C82.6301 4.48669 82.7826 5.19385 82.7707 5.90784C83.4949 5.98468 84.1612 6.3391 84.6297 6.89667C85.0981 7.45425 85.3323 8.17164 85.2832 8.89823C86.0574 9.01169 86.8016 9.27729 87.4727 9.67973C87.8064 9.88465 88.076 10.1791 88.2507 10.5296C88.4254 10.8802 88.4982 11.2727 88.4609 11.6626C88.4094 11.8322 88.3833 12.0085 88.3834 12.1857C88.4204 12.3752 88.5074 12.5513 88.6353 12.696C89.1505 13.226 89.6034 13.8132 89.9851 14.4463C90.2887 15.1244 90.1531 16.0932 89.462 16.3839C89.3005 16.4485 89.1067 16.4808 89.0163 16.6293C88.9678 16.7517 88.9678 16.888 89.0163 17.0104C89.2059 17.5084 89.4741 17.9729 89.8107 18.3861C90.1458 18.8055 90.3096 19.3363 90.2693 19.8716C90.1789 20.4012 89.6234 20.8533 89.1132 20.6208C89.6622 21.2667 90.2176 21.9125 90.7666 22.5584C91.096 22.9459 91.4125 23.4303 91.2833 23.9147C91.0702 24.5606 90.1466 24.5606 89.5847 24.2312C89.0228 23.9018 88.6288 23.3012 88.054 22.9395C87.8081 22.8281 87.5744 22.6917 87.3564 22.5326C87.195 22.384 87.0658 22.1838 86.8591 22.1386C86.4393 22.0353 86.2132 22.6747 86.4135 23.0428C86.6969 23.3671 87.0664 23.6045 87.4791 23.7274C87.8731 23.9147 88.2736 24.2441 88.2413 24.6704C88.2413 24.8771 88.1056 25.0644 88.0927 25.2711C88.054 25.9944 89.1455 26.1365 89.5589 26.7243C89.6754 26.9637 89.7359 27.2266 89.7359 27.4929C89.7359 27.7592 89.6754 28.022 89.5589 28.2614C89.3522 28.8686 88.7128 29.5919 88.2025 29.198C88.0217 29.0623 87.9442 28.8234 87.7827 28.6683C87.5726 28.5093 87.3262 28.4049 87.0658 28.3648C86.4352 28.1776 85.8722 27.8119 85.4447 27.312C86.2326 27.6802 87.1368 28.2292 87.1304 29.0946C87.089 29.4557 86.9931 29.8085 86.8462 30.1409C86.6266 30.7868 86.646 31.5489 86.4328 32.2336C86.3545 32.5787 86.1683 32.89 85.9012 33.1222C85.6341 33.3545 85.3 33.4957 84.9473 33.5253C85.1896 33.7877 85.3367 34.1237 85.3653 34.4796C85.394 34.8356 85.3023 35.1908 85.1051 35.4885C84.9079 35.7862 84.6165 36.0091 84.2776 36.1216C83.9387 36.234 83.5718 36.2295 83.2358 36.1088C83.0611 36.0192 82.8698 35.9664 82.6739 35.9538C82.465 35.9963 82.2725 36.0971 82.1184 36.2444C81.6007 36.6146 80.9909 36.8346 80.3561 36.8802C79.7213 36.9258 79.0862 36.7952 78.5209 36.5028L78.9924 36.0248C77.8301 36.5243 76.5673 36.7454 75.3045 36.6707C74.0579 36.4899 72.8308 35.5081 72.8179 34.2487C72.8179 33.7061 72.9923 33.0538 72.5854 32.6857C72.4281 32.5819 72.2509 32.5123 72.0652 32.4811C71.8794 32.45 71.6892 32.458 71.5068 32.5048L66.8113 33.0538C66.06 33.2111 65.2798 33.1575 64.5572 32.8988C64.382 32.8272 64.2226 32.7218 64.0881 32.5886C63.9537 32.4553 63.8468 32.2969 63.7736 32.1224C63.7005 31.9478 63.6624 31.7606 63.6616 31.5713C63.6609 31.382 63.6974 31.1945 63.7692 31.0193C63.1524 30.5511 62.4158 30.2667 61.6443 30.1991C60.7853 30.1215 59.9198 30.3218 59.0608 30.2895C58.6291 30.306 58.2012 30.2032 57.824 29.9924C57.4469 29.7816 57.1351 29.471 56.923 29.0946C56.5936 28.2937 57.3686 27.157 58.176 27.4735C57.4978 26.3626 55.3858 27.3056 54.643 26.2334C54.0359 25.3615 54.9983 24.2958 55.2889 23.2624C55.0047 22.9976 54.5655 22.9459 54.2684 22.694C53.6549 22.1515 54.0295 21.131 54.5333 20.4916C55.037 19.8522 55.6958 19.1353 55.5085 18.3409C55.3212 17.5464 54.2814 17.0039 54.3589 16.1707C54.3864 15.9401 54.5003 15.7286 54.6778 15.5787C54.8552 15.4289 55.0828 15.3519 55.3148 15.3634C55.192 13.7552 58.2212 13.5291 58.3504 11.9274C58.3505 11.8005 58.3072 11.6774 58.2276 11.5786C58.1601 11.4908 58.0712 11.4219 57.9693 11.3784C57.4737 11.2127 56.9596 11.1086 56.4386 11.0683C55.9219 10.9585 55.3793 10.6292 55.3277 10.1125C55.276 9.59577 56.1221 9.19532 56.3417 9.67326C56.4183 9.51582 56.5299 9.37796 56.668 9.2702C56.806 9.16245 56.9668 9.08765 57.1381 9.05152C57.3095 9.01538 57.4868 9.01888 57.6566 9.06171C57.8264 9.10454 57.9841 9.18558 58.1178 9.29867C58.2142 9.03071 58.3994 8.80383 58.6427 8.65577C58.8859 8.50771 59.1725 8.4474 59.4548 8.48486C60.0171 8.57529 60.5502 8.79652 61.0113 9.13073" fill="#263238"/>
<path d="M74.6838 20.5691C73.2822 18.8769 71.0734 18.0567 68.9097 17.6821C68.0077 17.4684 67.0668 17.4817 66.1712 17.7208C65.7271 17.8493 65.3304 18.1049 65.0297 18.4561C64.729 18.8072 64.5376 19.2386 64.479 19.6972L65.2993 20.9889C66.2487 23.243 68.8709 24.2183 70.7181 25.8136C71.519 26.5111 72.3522 27.4218 73.4179 27.3507C73.9783 27.2815 74.4935 27.0078 74.8646 26.5822C76.376 25.0062 76.0853 22.2677 74.6838 20.5691Z" fill="#FF725E"/>
<path d="M80.0774 30.5025C80.2318 29.3607 79.98 28.2009 79.3661 27.2257C78.7522 26.2506 77.8153 25.5222 76.7189 25.1677C76.9773 23.7467 75.8664 22.371 74.5359 21.8156C73.2054 21.2601 71.7069 21.3441 70.2666 21.4281C69.1184 20.1837 67.5366 19.4271 65.8472 19.3141C64.1578 19.2012 62.4894 19.7405 61.1857 20.8209C58.486 19.4129 55.0822 20.7886 52.9121 22.92C52.4237 23.4818 51.8558 23.9692 51.2264 24.3668C50.7287 24.5886 50.2175 24.7785 49.6956 24.9351C46.8861 25.9879 45.2779 29.2302 45.5621 32.2141C45.6457 32.6873 45.6653 33.1696 45.6202 33.648C45.4473 34.2542 45.1977 34.8359 44.8774 35.3789C44.6042 36.0037 44.468 36.6797 44.4781 37.3616C44.4881 38.0434 44.6441 38.7152 44.9356 39.3316C45.4394 40.3715 46.3436 41.2692 46.4146 42.4253C46.4469 43.0066 46.2596 43.5879 46.35 44.1627C46.6148 45.8162 48.9335 46.4104 49.4244 48.038C49.5277 48.3674 49.5406 48.6838 49.6117 49.0455C49.7681 49.7361 50.1697 50.3465 50.742 50.7635C51.1747 51.0865 51.7237 51.2996 52.0337 51.7582C52.2014 52.1311 52.3207 52.524 52.3889 52.9272C52.6731 53.8895 56.3352 56.2276 57.3363 56.2922L79.8062 44.4857C80.5483 43.8403 81.0713 42.9801 81.3027 42.0242C81.5341 41.0683 81.4626 40.0642 81.0979 39.1508C80.9375 38.8676 80.8572 38.5461 80.8654 38.2207C80.9455 37.9518 81.0821 37.703 81.2658 37.4909C82.2863 35.9472 81.4015 33.8805 80.3745 32.3239C80.2185 32.1173 80.0984 31.8858 80.0193 31.6393C79.9631 31.2603 79.9828 30.8738 80.0774 30.5025Z" fill="#263238"/>
<path d="M73.6891 33.9773C72.5138 31.8375 70.7828 30.0546 68.6787 28.8167C66.5746 27.5788 64.1753 26.9317 61.734 26.9438C59.4892 27.0674 57.2924 27.6429 55.2753 28.6359C53.3536 29.4422 51.7227 30.8141 50.5992 32.5693C49.5206 33.5252 47.2213 40.0808 49.3979 44.6988C51.8199 49.8205 54.9976 55.9821 57.5811 59.373C62.8514 66.1546 69.0711 63.9651 69.0711 63.9651L71.8419 69.7004L79.5924 76.2754L86.5097 64.9985L88.0145 62.5636L73.6891 33.9773Z" fill="#AE7461"/>
<path d="M55.043 49.7884C55.1787 50.0381 55.4064 50.225 55.6778 50.3094C55.9492 50.3939 56.2428 50.3691 56.4962 50.2405C56.6225 50.1828 56.736 50.1006 56.8302 49.9987C56.9244 49.8967 56.9974 49.777 57.0449 49.6466C57.0924 49.5161 57.1134 49.3775 57.1068 49.2389C57.1002 49.1002 57.0661 48.9643 57.0064 48.8389C56.8707 48.5892 56.643 48.4023 56.3716 48.3178C56.1002 48.2334 55.8066 48.2581 55.5532 48.3868C55.4269 48.4444 55.3134 48.5266 55.2192 48.6286C55.125 48.7306 55.052 48.8503 55.0045 48.9807C54.957 49.1111 54.936 49.2497 54.9426 49.3884C54.9492 49.527 54.9833 49.663 55.043 49.7884Z" fill="#263238"/>
<path d="M52.6868 46.6107C52.8741 46.6688 53.3326 45.7388 54.3273 45.1768C55.3219 44.6149 56.3876 44.7118 56.4264 44.531C56.4264 44.447 56.2068 44.2855 55.7482 44.2274C55.1365 44.1651 54.5206 44.2937 53.985 44.5956C53.45 44.886 53.0204 45.3381 52.7578 45.8873C52.577 46.3007 52.5963 46.5848 52.6868 46.6107Z" fill="#263238"/>
<path d="M63.1481 51.4029C62.5129 51.528 61.8964 51.7342 61.3138 52.0165C61.0361 52.1392 60.7584 52.2232 60.6163 52.0682C60.4493 51.8082 60.3618 51.5052 60.3644 51.1963C60.261 50.4277 60.1577 49.6203 60.0414 48.7742C59.5506 45.3382 59.0468 42.5803 58.9047 42.5997C58.7626 42.6191 59.0533 45.4157 59.5506 48.8517C59.6733 49.6914 59.796 50.4987 59.9123 51.2673C59.9201 51.6734 60.0737 52.0631 60.345 52.3653C60.4336 52.4388 60.5381 52.4905 60.6503 52.5163C60.7624 52.5421 60.8791 52.5413 60.9909 52.5138C61.1569 52.47 61.3172 52.4071 61.4688 52.3265C62.0638 52.0876 62.6277 51.7775 63.1481 51.4029Z" fill="#263238"/>
<path d="M69.0908 63.9458C72.628 62.066 75.5746 59.2423 77.6034 55.7885C77.6034 55.7885 77.8359 62.4861 70.0144 65.8899L69.0908 63.9458Z" fill="#6F4439"/>
<path d="M51.2964 44.4534C51.6064 44.6084 52.304 44.0077 53.234 43.5815C54.1641 43.1552 55.0877 42.9743 55.1717 42.6385C55.1717 42.477 54.965 42.2897 54.5258 42.2122C53.9181 42.1355 53.3012 42.2365 52.7496 42.5029C52.1893 42.7516 51.7152 43.1606 51.3869 43.6783C51.1608 44.0723 51.1543 44.3759 51.2964 44.4534Z" fill="#263238"/>
<path d="M66.4299 43.9367C66.5607 44.1891 66.5874 44.4827 66.504 44.7544C66.4207 45.0262 66.2341 45.2544 65.9842 45.39C65.8659 45.4619 65.7344 45.5094 65.5974 45.5298C65.4605 45.5503 65.3208 45.5431 65.1867 45.5088C65.0525 45.4745 64.9265 45.4138 64.8162 45.3301C64.7058 45.2465 64.6133 45.1417 64.5439 45.0218C64.4143 44.7699 64.3876 44.4775 64.4695 44.2063C64.5515 43.9352 64.7357 43.7065 64.9831 43.5686C65.1017 43.4956 65.2338 43.4472 65.3714 43.4263C65.509 43.4053 65.6495 43.4122 65.7844 43.4465C65.9193 43.4809 66.046 43.542 66.1569 43.6262C66.2678 43.7104 66.3606 43.816 66.4299 43.9367Z" fill="#263238"/>
<path d="M66.9398 39.28C66.8817 39.4673 65.8676 39.28 64.8278 39.8226C63.7879 40.3651 63.2777 41.2628 63.0968 41.1918C63.0129 41.1595 63.0258 40.8689 63.2325 40.462C63.5225 39.9203 63.974 39.4823 64.5242 39.209C65.0679 38.9325 65.6858 38.8374 66.2875 38.9377C66.746 39.0217 66.9656 39.1961 66.9398 39.28Z" fill="#263238"/>
<path d="M64.7634 35.2368C64.6794 35.5791 63.7494 35.7341 62.7741 36.212C61.7988 36.69 61.0625 37.2712 60.7461 37.1227C60.604 37.0452 60.6104 36.7416 60.8559 36.3347C61.208 35.8094 61.7002 35.3932 62.2768 35.1334C62.8408 34.8548 63.4732 34.745 64.0981 34.8169C64.5632 34.888 64.8021 35.0753 64.7634 35.2368Z" fill="#263238"/>
<path d="M76.3766 41.6763C76.073 41.1208 75.9891 39.4674 76.4928 39.0928C77.8233 38.0594 80.5231 36.7289 82.5899 40.4233C85.4123 45.4675 79.7609 47.2631 79.6705 47.1274C79.5801 46.9918 77.4229 43.588 76.3766 41.6763Z" fill="#AE7461"/>
<path d="M80.0317 44.518C80.0317 44.518 80.1544 44.518 80.3417 44.518C80.5939 44.4848 80.8245 44.358 80.9876 44.1628C81.4074 43.6719 81.3816 42.5739 80.8972 41.6504C80.6714 41.2077 80.3464 40.8231 79.9477 40.5265C79.8124 40.3949 79.6468 40.2983 79.4655 40.2454C79.2843 40.1925 79.0928 40.1848 78.9079 40.223C78.7925 40.2529 78.6912 40.3222 78.6216 40.4189C78.552 40.5157 78.5185 40.6337 78.5268 40.7526C78.5268 40.9334 78.6237 41.0174 78.6043 41.0368C78.5849 41.0561 78.4493 41.0368 78.3718 40.7849C78.322 40.6449 78.322 40.4921 78.3718 40.3521C78.4583 40.172 78.6076 40.0296 78.7916 39.9517C79.0222 39.8789 79.2675 39.8655 79.5046 39.913C79.7418 39.9604 79.9631 40.0671 80.1479 40.223C80.606 40.5428 80.9804 40.9681 81.2395 41.463C81.7755 42.4964 81.7884 43.7365 81.1749 44.3566C81.0612 44.4714 80.9234 44.5593 80.7715 44.6141C80.6195 44.6688 80.4572 44.689 80.2965 44.673C80.1092 44.6084 80.0188 44.518 80.0317 44.518Z" fill="#6F4439"/>
<path d="M48.3192 45.3834C48.6787 44.856 48.8811 44.2373 48.9028 43.5993C48.9246 42.9613 48.7647 42.3302 48.4419 41.7795C49.2298 41.6116 49.4365 40.3586 49.514 39.5512C49.5915 38.7439 49.908 38.182 49.514 37.4909C49.4163 37.3635 49.3559 37.2115 49.3396 37.0517C49.3396 36.7998 49.5398 36.6061 49.7142 36.4058C50.1583 35.9334 50.4767 35.3571 50.6403 34.7297C50.8039 34.1023 50.8075 33.4439 50.6507 32.8148C52.0055 32.6889 53.308 32.2296 54.442 31.4778C54.9158 31.7122 55.4412 31.8229 55.9693 31.7996C56.4974 31.7763 57.011 31.6197 57.4623 31.3444C57.9136 31.0691 58.2879 30.6841 58.5503 30.2252C58.8127 29.7663 58.9547 29.2485 58.9631 28.72C59.3038 28.9343 59.6866 29.0728 60.0855 29.1263C60.4844 29.1798 60.8902 29.1469 61.2753 29.03C62.0437 28.7885 62.7726 28.436 63.439 27.9837C63.6866 28.7431 64.1998 29.3877 64.8843 29.7994C65.5688 30.2111 66.3788 30.3621 67.1657 30.2248C67.2675 30.1804 67.3775 30.1575 67.4886 30.1575C67.5998 30.1575 67.7097 30.1804 67.8116 30.2248C67.9924 30.354 68.0118 30.6124 68.0441 30.832C68.1043 31.1785 68.2347 31.509 68.4272 31.8033C68.6196 32.0977 68.8702 32.3496 69.1635 32.5437C69.4567 32.7378 69.7866 32.87 70.1327 32.9322C70.4789 32.9943 70.8341 32.9851 71.1765 32.9052C71.0769 33.1822 71.0417 33.4782 71.0736 33.7707C71.1054 34.0633 71.2035 34.3448 71.3604 34.5938C71.5173 34.8428 71.7288 35.0528 71.979 35.2079C72.2291 35.363 72.5113 35.459 72.8041 35.4887C73.0496 35.4887 73.3596 35.4887 73.45 35.7277C73.4727 35.8189 73.4727 35.9142 73.45 36.0054C73.2922 36.707 73.3347 37.4388 73.5727 38.1174C73.7058 38.4503 73.9615 38.7196 74.2871 38.8697C74.6126 39.0199 74.9834 39.0396 75.323 38.9247C75.2191 39.1532 75.1627 39.4004 75.1571 39.6513C75.1516 39.9022 75.197 40.1516 75.2907 40.3844C75.3452 40.4951 75.424 40.592 75.5214 40.6678C75.6188 40.7435 75.7321 40.7961 75.8528 40.8216C75.9735 40.8472 76.0984 40.8449 76.2181 40.815C76.3378 40.7851 76.4492 40.7285 76.5437 40.6492C76.6794 40.4878 78.927 38.6018 78.9593 38.3887C79.321 35.6566 76.3371 34.5134 74.8645 32.1625C73.3411 29.847 71.303 27.9151 68.9095 26.5176C67.9286 25.8986 66.8713 25.4101 65.7641 25.0643C64.4829 24.7465 63.17 24.5731 61.8502 24.5476C60.1339 24.3643 58.3992 24.4647 56.7155 24.8447C53.6282 25.7038 51.3289 28.2614 49.4301 30.8449C48.6714 31.8002 48.0457 32.854 47.5699 33.9774C47.0995 35.3633 46.8807 36.8223 46.9241 38.2853C46.8138 40.4075 47.1437 42.5294 47.8929 44.518" fill="#263238"/>
<path d="M46.3505 44.1627C46.3139 43.9317 46.3139 43.6963 46.3505 43.4652C46.3505 43.2391 46.4086 42.9614 46.4151 42.6256C46.419 42.247 46.3396 41.8721 46.1826 41.5276C45.9804 41.0933 45.7428 40.6763 45.4721 40.2811C45.1407 39.8116 44.8756 39.2986 44.6842 38.7568C44.3644 37.7724 44.3644 36.7121 44.6842 35.7277C44.8154 35.3709 44.9752 35.0253 45.1621 34.6943C45.3532 34.3566 45.4885 33.9901 45.5626 33.6092C45.6041 33.2024 45.5911 32.7919 45.5238 32.3885C45.3164 30.5484 45.7746 28.6949 46.8156 27.1634C47.0952 26.7516 47.4202 26.3725 47.7844 26.0331C48.1638 25.6893 48.5847 25.3942 49.0373 25.1547C49.268 25.034 49.5052 24.9262 49.7478 24.8318C49.9932 24.7414 50.2451 24.6704 50.4906 24.5864C50.9897 24.4365 51.4518 24.1835 51.8469 23.8436C52.2538 23.5078 52.609 23.0944 53.0095 22.7263C53.4122 22.3445 53.8441 21.9947 54.3012 21.68C54.7708 21.3644 55.2654 21.0879 55.7802 20.8532C56.3082 20.6195 56.8576 20.4378 57.4208 20.3107C58.5802 20.0391 59.7957 20.1385 60.8955 20.5949L61.2249 20.7434H61.1281C61.7924 20.1767 62.5648 19.7506 63.3985 19.4908C64.2322 19.231 65.1099 19.143 65.9786 19.2321C67.6506 19.3461 69.2113 20.1113 70.3253 21.3635L70.2607 21.3312C71.0235 21.2721 71.7893 21.2613 72.5535 21.2989C73.2989 21.3321 74.0321 21.5007 74.7172 21.7962C75.366 22.1134 75.9172 22.5998 76.3125 23.2042C76.713 23.7798 76.875 24.4881 76.7646 25.1806L76.7129 25.0966C77.7769 25.4329 78.6905 26.1295 79.2964 27.0665C79.861 27.894 80.1585 28.8744 80.149 29.8761C80.1459 30.1054 80.1265 30.3342 80.0908 30.5607C80.0443 30.7739 80.0098 30.9895 79.9875 31.2066C79.9679 31.4091 79.999 31.6133 80.0779 31.8008C80.1626 31.9822 80.2643 32.1551 80.3815 32.3175C80.7882 32.9229 81.1241 33.573 81.3826 34.2551C81.5931 34.8097 81.6961 35.3993 81.6861 35.9925C81.6724 36.4325 81.5574 36.8634 81.3503 37.2519C81.1824 37.5684 80.9886 37.7622 80.9111 37.8978C80.8658 37.9792 80.8311 38.066 80.8078 38.1561C80.8162 38.0628 80.8449 37.9725 80.8917 37.8913C80.9628 37.7169 81.1501 37.5167 81.3115 37.2067C81.5077 36.8223 81.6137 36.3982 81.6216 35.9666C81.6271 35.3832 81.5196 34.8042 81.3051 34.2615C81.0455 33.5788 80.7073 32.9286 80.2975 32.3239C80.1793 32.1553 80.0736 31.9783 79.981 31.7943C79.8952 31.5904 79.8597 31.3689 79.8777 31.1484C79.8777 30.9224 79.9423 30.7092 79.9746 30.5026C80.0093 30.2889 80.0287 30.0731 80.0327 29.8567C80.0337 28.8814 79.7387 27.9287 79.1866 27.1247C78.591 26.2175 77.6981 25.5461 76.6613 25.2258H76.5967V25.1612C76.6969 24.5036 76.5396 23.8327 76.1575 23.2882C75.7673 22.7131 75.2297 22.2536 74.6009 21.9577C73.9315 21.6724 73.216 21.5105 72.4889 21.4797C71.7311 21.4413 70.9715 21.4542 70.2155 21.5185H70.1767V21.4862C69.041 20.2633 67.4809 19.5206 65.8156 19.4102C64.1503 19.2997 62.5058 19.8298 61.2185 20.892L61.1733 20.9308H61.1151L60.8051 20.7887C59.7377 20.3469 58.559 20.2498 57.4337 20.5109C56.8825 20.6376 56.3441 20.8149 55.8255 21.0405C55.3212 21.2747 54.8354 21.5468 54.3722 21.8543C53.915 22.1617 53.483 22.5051 53.0805 22.8813C52.6865 23.243 52.3248 23.6563 51.9115 24.0051C51.7109 24.1777 51.4947 24.3312 51.2656 24.4637C51.0275 24.5884 50.779 24.6921 50.5229 24.7737C50.271 24.8576 50.0255 24.9287 49.7866 25.0191C49.5479 25.108 49.3149 25.2115 49.089 25.3291C48.6493 25.5599 48.2412 25.8465 47.8748 26.1817C47.517 26.5116 47.1964 26.8798 46.9189 27.2797C46.3934 28.0498 46.0146 28.9103 45.8015 29.8179C45.5958 30.6628 45.5412 31.5375 45.6401 32.4014C45.6949 32.8173 45.6949 33.2385 45.6401 33.6544C45.5609 34.049 45.4191 34.4284 45.2202 34.7782C45.0322 35.1019 44.8723 35.4412 44.7423 35.7922C44.6271 36.1268 44.5513 36.4736 44.5162 36.8256C44.4432 37.4775 44.507 38.1374 44.7035 38.7633C44.8886 39.3001 45.1473 39.8088 45.4721 40.2746C45.7392 40.6743 45.9725 41.0956 46.1697 41.534C46.3247 41.8927 46.4017 42.2801 46.3957 42.6708C46.3957 43.0066 46.3376 43.2844 46.3182 43.5104C46.3038 43.6802 46.3038 43.8509 46.3182 44.0207C46.3441 44.0982 46.357 44.1563 46.3505 44.1627Z" fill="#455A64"/>
<path d="M58.1892 21.0083C58.0279 21.0178 57.8661 21.0178 57.7048 21.0083C57.2608 21.0258 56.8234 21.122 56.4131 21.2924C55.8041 21.5291 55.2722 21.9291 54.8759 22.4485C54.3957 23.0838 54.1289 23.8548 54.1138 24.651C54.1064 24.8892 54.1259 25.1275 54.1719 25.3614C54.1861 25.4663 54.2229 25.5668 54.2797 25.656C54.3366 25.7452 54.4122 25.821 54.5013 25.8781L54.7209 25.9815L54.4884 26.0396C53.8809 26.1813 53.3526 26.5544 53.0158 27.0794C52.7524 27.5018 52.6324 27.9979 52.6735 28.4939C52.6973 28.8221 52.7851 29.1424 52.9318 29.4369C53.0352 29.6436 53.1127 29.7469 53.0997 29.7534L53.0352 29.6888C52.9765 29.6185 52.9245 29.5428 52.8801 29.4627C52.704 29.1696 52.5959 28.8408 52.5637 28.5004C52.5063 27.9783 52.622 27.4518 52.8931 27.0019C53.2435 26.4356 53.8026 26.0296 54.4496 25.8717V26.0331C54.3346 25.9644 54.2365 25.8707 54.1627 25.7589C54.0889 25.647 54.0413 25.52 54.0233 25.3873C53.9727 25.1409 53.951 24.8895 53.9588 24.6381C53.9741 23.8018 54.2596 22.9929 54.7725 22.3323C55.1921 21.8006 55.7511 21.3958 56.3872 21.1633C56.8089 20.9986 57.2586 20.9174 57.7113 20.9243C57.8347 20.925 57.9578 20.9358 58.0794 20.9566C58.1505 20.9953 58.1892 21.0018 58.1892 21.0083Z" fill="#455A64"/>
<path d="M69.6135 22.3259C69.6022 22.4219 69.576 22.5156 69.536 22.6036C69.4392 22.8527 69.3204 23.0926 69.1808 23.3205C68.9628 23.6636 68.6744 23.9564 68.3347 24.1795C67.8989 24.4608 67.3736 24.5691 66.8621 24.4831L66.9654 24.4056C66.9654 24.5024 66.9654 24.5993 66.9331 24.6962C66.9009 24.7931 66.8879 24.89 66.8686 24.9933C66.7173 25.549 66.4286 26.0577 66.0289 26.4724C65.712 26.8155 65.33 27.0921 64.9051 27.2862C64.6204 27.4164 64.3178 27.5035 64.0074 27.5445C63.8942 27.5655 63.7782 27.5655 63.665 27.5445C64.0761 27.4765 64.4759 27.3526 64.8534 27.1764C65.2547 26.9744 65.6141 26.6983 65.9127 26.3626C66.283 25.9597 66.553 25.4751 66.7006 24.9481C66.7006 24.8512 66.7459 24.7608 66.7588 24.6704C66.7717 24.5799 66.7588 24.4831 66.7588 24.3926V24.2958H66.8492C67.3193 24.3753 67.8022 24.2787 68.2055 24.0245C68.5345 23.8219 68.8181 23.5537 69.0387 23.2365C69.4585 22.7069 69.5812 22.313 69.6135 22.3259Z" fill="#455A64"/>
<path d="M74.8716 25.5682C74.8716 25.5682 74.8716 25.5682 74.9103 25.6651C74.9255 25.7678 74.9255 25.8723 74.9103 25.9751C74.8679 26.3575 74.6835 26.7102 74.3936 26.9633C73.9538 27.3215 73.4202 27.5457 72.8565 27.6091C72.5464 27.6543 72.2106 27.7125 71.8812 27.7318C71.5108 27.7718 71.1382 27.6804 70.8284 27.4735L70.7574 27.4089H70.893C70.6452 28.0309 70.3056 28.6121 69.8855 29.1334C69.5327 29.5621 69.0675 29.8841 68.542 30.0634C68.1888 30.1835 67.8106 30.2102 67.4441 30.1409C67.3448 30.1218 67.2476 30.0937 67.1534 30.057C67.0953 30.057 67.063 30.0118 67.063 30.0053C67.063 29.9989 67.2051 30.0441 67.4505 30.0764C67.8046 30.1174 68.1633 30.0731 68.4968 29.9472C69.0037 29.7664 69.4508 29.449 69.7886 29.03C70.194 28.5174 70.5205 27.947 70.7574 27.3379L70.809 27.2281L70.8995 27.312L70.9641 27.3637C71.2414 27.543 71.5724 27.6207 71.9006 27.5833C72.221 27.5641 72.5401 27.5275 72.8565 27.4735C73.3926 27.4247 73.9046 27.2279 74.3355 26.9051C74.612 26.6736 74.8011 26.3546 74.8716 26.0009C74.8832 25.8569 74.8832 25.7122 74.8716 25.5682Z" fill="#455A64"/>
<path d="M70.3819 4.474C70.3819 4.474 70.298 4.52566 70.1688 4.64838C69.9854 4.82294 69.8574 5.04753 69.8006 5.29425C69.7137 5.69363 69.7661 6.11076 69.9492 6.4762C70.199 6.95199 70.5191 7.38745 70.8986 7.76795L70.9632 7.83898L70.8728 7.8842C70.2361 8.21142 69.7235 8.73754 69.4131 9.38263C69.2316 9.73868 69.137 10.1326 69.137 10.5323C69.137 10.9319 69.2316 11.3259 69.4131 11.6819C69.5709 12.011 69.803 12.299 70.091 12.5232C70.379 12.7473 70.7152 12.9015 71.073 12.9737L71.3184 13.0189L71.0988 13.1351C70.7378 13.334 70.4218 13.6053 70.1706 13.932C69.9194 14.2588 69.7385 14.634 69.6392 15.034C69.4787 15.6841 69.5518 16.37 69.8458 16.9716C70.0331 17.364 70.2991 17.7135 70.6273 17.9985C70.8599 18.1923 71.0084 18.2763 71.002 18.2892L70.8922 18.2375C70.789 18.1794 70.6898 18.1147 70.5951 18.0438C70.1443 17.6961 69.8021 17.227 69.6087 16.6915C69.4154 16.1561 69.3789 15.5765 69.5035 15.0211C69.6012 14.5984 69.7869 14.2011 70.0484 13.855C70.3099 13.5089 70.6414 13.2218 71.0213 13.0124V13.1674C70.6371 13.0942 70.2753 12.9323 69.9647 12.6946C69.6541 12.4569 69.4033 12.1499 69.2323 11.7982C69.028 11.4104 68.9258 10.977 68.9352 10.5387C68.945 10.1221 69.0441 9.71245 69.2258 9.33741C69.5562 8.66366 70.0985 8.11686 70.7694 7.78086V7.89711C70.3844 7.50679 70.0639 7.05768 69.82 6.56662C69.6373 6.1775 69.5939 5.73737 69.6973 5.32009C69.763 5.05392 69.9097 4.81471 70.1171 4.63547C70.172 4.58889 70.2328 4.5498 70.298 4.51921L70.3819 4.474Z" fill="#455A64"/>
<path d="M85.4571 10.5064C85.4571 10.5064 85.4571 10.5452 85.4054 10.6033C85.3463 10.6913 85.2816 10.7755 85.2116 10.8552C84.9551 11.1622 84.6547 11.4299 84.3203 11.6496C83.8055 11.9876 83.2277 12.2182 82.6217 12.3278C81.8448 12.4828 81.0401 12.4202 80.2965 12.1469L80.4063 12.0759C80.3912 12.6216 80.2554 13.1571 80.0086 13.644C79.7618 14.1309 79.4102 14.5571 78.979 14.8919C78.5111 15.2324 77.949 15.419 77.3705 15.426C76.7919 15.4329 76.2255 15.2598 75.7496 14.9306L75.8788 14.8531C75.938 15.257 75.889 15.6693 75.7367 16.048C75.6048 16.3897 75.4122 16.7048 75.1683 16.978C74.7568 17.4114 74.2597 17.7545 73.7087 17.9856C73.3573 18.1402 72.9945 18.2676 72.6236 18.3667C72.4951 18.417 72.3604 18.4496 72.2231 18.4635C72.3491 18.4078 72.4785 18.3603 72.6107 18.3215C72.8561 18.231 73.2242 18.1019 73.6699 17.8952C74.1971 17.6551 74.6713 17.3126 75.065 16.8876C75.3118 16.6197 75.4975 16.3012 75.609 15.9544C75.7205 15.6075 75.7553 15.2406 75.7109 14.879L75.6786 14.6787L75.84 14.8014C76.2918 15.1137 76.83 15.2766 77.379 15.2674C77.9281 15.2581 78.4605 15.0771 78.9015 14.7498C79.3126 14.4311 79.6485 14.0257 79.8852 13.5624C80.1219 13.0991 80.2535 12.5894 80.2707 12.0694V11.9532L80.374 11.9984C81.0902 12.2628 81.8643 12.3297 82.6152 12.1921C83.21 12.0894 83.7785 11.8699 84.288 11.5463C84.7272 11.2597 85.1212 10.9092 85.4571 10.5064Z" fill="#455A64"/>
<path d="M84.2043 20.8468C84.2043 20.8468 84.2043 20.8856 84.2043 20.9696C84.1594 21.0831 84.0833 21.1817 83.9847 21.2537C83.6205 21.497 83.2005 21.6437 82.764 21.68C82.1123 21.757 81.4529 21.6283 80.8781 21.3119C80.1754 20.9132 79.6477 20.2656 79.399 19.497H79.554C79.095 20.1531 78.4355 20.6426 77.6745 20.892C77.0519 21.104 76.388 21.1659 75.7369 21.0729C75.3094 21.0185 74.8918 20.9032 74.4969 20.7306C74.3475 20.6785 74.2079 20.6022 74.0835 20.5045C74.6193 20.7252 75.1817 20.875 75.7563 20.9502C76.376 21.0161 77.0025 20.9433 77.5906 20.737C78.3132 20.4917 78.9396 20.0236 79.3796 19.4001L79.4765 19.258L79.5347 19.4259C79.7452 20.0881 80.1757 20.6586 80.7548 21.0427C81.3339 21.4268 82.0268 21.6015 82.7188 21.5379C83.1388 21.5111 83.5473 21.3897 83.9137 21.1827C84.0472 21.1086 84.1502 20.9896 84.2043 20.8468Z" fill="#455A64"/>
<path d="M59.3956 10.7324C59.5021 11.3302 59.7213 11.9022 60.0414 12.4181C60.3895 12.9689 60.8632 13.4293 61.4236 13.7616C62.1171 14.1511 62.9105 14.3265 63.7035 14.2653C64.1615 14.2342 64.6101 14.1204 65.0276 13.9295L65.1245 13.8843V13.9876C65.2487 14.6087 65.4898 15.2004 65.8349 15.7315C66.1112 16.1534 66.4461 16.534 66.8296 16.8617C66.9723 16.9841 67.1233 17.0963 67.2817 17.1976C67.3362 17.2365 67.399 17.2621 67.4653 17.2722C67.5315 17.2823 67.5991 17.2767 67.6627 17.2557C67.703 17.2416 67.7396 17.2186 67.7698 17.1884C67.8 17.1582 67.823 17.1216 67.8371 17.0813C67.8371 17.0297 67.8371 16.9974 67.8371 16.9974C67.8371 16.9974 67.8371 16.9974 67.8371 17.0878C67.8283 17.1367 67.8078 17.1828 67.7775 17.2221C67.7471 17.2614 67.7078 17.2929 67.6627 17.3139C67.5905 17.3422 67.5127 17.3534 67.4354 17.3467C67.3581 17.3399 67.2834 17.3154 67.2171 17.2751C67.0469 17.1787 66.8849 17.0685 66.7327 16.9457C66.3275 16.6229 65.9745 16.2395 65.6864 15.809C65.3201 15.27 65.0634 14.6643 64.9307 14.0264L65.047 14.0845C64.6113 14.2848 64.1431 14.4052 63.6648 14.4397C62.916 14.5089 62.163 14.3634 61.4939 14.0203C60.8248 13.6771 60.2672 13.1505 59.8864 12.5021C59.6584 12.114 59.4968 11.6905 59.4085 11.2491C59.4085 11.0876 59.3697 10.9714 59.3633 10.8874C59.3638 10.8341 59.3748 10.7815 59.3956 10.7324Z" fill="#455A64"/>
<path d="M66.7395 50.9768C66.5716 51.022 66.901 52.0812 66.2293 53.1211C65.5576 54.1609 64.3821 54.4128 64.4209 54.5484C64.4596 54.6841 64.7373 54.6776 65.2153 54.5484C65.8427 54.3637 66.3848 53.9634 66.746 53.4182C67.0913 52.895 67.2209 52.2586 67.1077 51.642C67.0108 51.1511 66.8106 50.9251 66.7395 50.9768Z" fill="#263238"/>
<path d="M71.7329 69.2421C71.7329 69.2421 76.3121 99.4172 81.7891 104.668C87.6795 110.319 98.2653 113.103 98.2653 113.103C98.2653 113.103 112.352 118.677 117.247 117.463L126.096 87.1069C125.952 86.5809 125.639 86.1172 125.204 85.7878C124.77 85.4585 124.238 85.2819 123.693 85.2855C122.815 85.2532 120.29 86.4352 119.14 86.1574C114.554 85.053 103.807 68.6091 103.807 68.6091C103.807 68.6091 93.5957 54.5291 84.8893 55.8015C78.9215 56.6734 76.4478 59.3279 74.2001 65.3474C73.6577 66.7975 72.8172 68.1177 71.7329 69.2227V69.2421Z" fill="#FF8A00"/>
<path d="M71.7328 69.2419L67.7607 89.3479L49.405 84.1293L46.2402 94.8507L77.2937 108.873L83.4037 83.4511L71.7328 69.2419Z" fill="#FF8A00"/>
<path d="M113.255 104.707C113.171 104.674 114.547 100.909 116.271 96.3104C117.996 91.7118 119.501 87.9916 119.604 88.0239C119.707 88.0562 118.312 91.8216 116.588 96.4202C114.863 101.019 113.339 104.739 113.255 104.707Z" fill="#263238"/>
<path d="M112.913 100.489C113.928 97.0723 115.162 93.7241 116.607 90.4653C116.147 92.1883 115.582 93.8814 114.915 95.5354C114.348 97.2257 113.68 98.8801 112.913 100.489Z" fill="#263238"/>
<path d="M71.254 75.0547C71.4303 76.6181 71.5208 78.1899 71.5253 79.7632C71.5769 81.0549 71.6286 82.2304 71.6803 83.0829C71.7429 83.5387 71.7602 83.9995 71.732 84.4586C71.5703 84.0232 71.4745 83.566 71.4478 83.1023C71.3315 82.2562 71.2411 81.0743 71.1894 79.7761C71.1378 78.4779 71.1313 77.2895 71.1507 76.4369C71.1286 75.9737 71.1633 75.5095 71.254 75.0547Z" fill="#263238"/>
<g opacity="0.3">
<path d="M61.1479 101.581L67.9877 98.6097L71.7338 85.3435L69.189 101.684L64.1448 102.937L61.1479 101.581Z" fill="black"/>
</g>
<g opacity="0.3">
<path d="M118.241 90.6139C118.006 90.5042 117.74 90.4758 117.487 90.533C117.233 90.5903 117.006 90.73 116.84 90.9303C116.485 91.3499 116.215 91.8348 116.045 92.3577C114.698 95.7722 113.346 99.2018 111.989 102.646C111.758 103.125 111.643 103.652 111.654 104.184C111.712 104.713 112.125 105.236 112.603 105.165C113.081 105.094 113.313 104.603 113.514 104.164C115.449 99.805 117.091 95.3213 118.429 90.743" fill="black"/>
</g>
<path d="M20.9736 86.8227C20.9736 86.8227 23.4473 83.5158 24.9005 82.8118C26.0566 82.2499 32.9352 81.0357 33.7748 81.1971C34.6144 81.3586 49.4049 84.6009 49.4049 84.6009L47.4673 91.0596L46.5178 90.6204C46.5178 90.6204 43.5339 92.1188 41.254 91.4019C39.4304 90.6999 37.6961 89.785 36.087 88.6763L34.0525 89.4385C34.0525 89.4385 36.2872 90.1425 36.4552 91.0661C36.6231 91.9897 35.3507 92.093 35.3507 92.093L35.2603 92.4999C35.1829 92.8421 34.9747 93.1404 34.6802 93.3311C34.3857 93.5218 34.0283 93.5897 33.6844 93.5204C32.3926 93.262 30.455 92.8099 30.0546 92.3449C29.8802 92.1511 28.9824 90.4977 28.9824 90.4977C27.5938 89.5224 27.6196 88.5601 27.6907 87.9659C27.8457 86.7775 29.1052 85.4534 29.1052 85.4534L26.6056 85.3178C26.6056 85.3178 22.5883 89.4385 20.9736 86.8227Z" fill="#AE7461"/>
<path d="M41.7568 85.7375C38.7535 85.7375 35.8988 85.337 33.6641 85.8925C33.0653 86.0047 32.5089 86.2795 32.0558 86.6869C31.8327 86.8949 31.6817 87.1686 31.6248 87.4683C31.5679 87.7679 31.608 88.0779 31.7394 88.3532C31.8891 88.5666 32.0884 88.7404 32.3201 88.8597C32.5519 88.979 32.8092 89.0401 33.0699 89.0379C33.5866 89.0379 34.1033 88.9604 34.6264 88.9474C35.8822 88.9983 37.1045 89.3672 38.1787 90.0196C39.2509 90.6663 40.4042 91.168 41.6083 91.5116C42.829 91.7764 45.7031 91.5438 46.5427 90.6202" fill="#AE7461"/>
<path d="M46.5439 90.6203C46.5439 90.6203 46.4922 90.7042 46.3566 90.8334C46.1415 91.0022 45.9019 91.1372 45.6461 91.2339C44.7102 91.5713 43.7217 91.7397 42.7268 91.7312C42.0311 91.7449 41.339 91.6288 40.6858 91.3889C39.9504 91.1063 39.236 90.7717 38.548 90.3878C37.8084 89.9686 37.0296 89.6225 36.2229 89.3544C35.8042 89.2201 35.3701 89.1398 34.9311 89.1154C34.467 89.1157 34.0033 89.1438 33.5425 89.1994C33.039 89.259 32.5293 89.162 32.0828 88.9216C31.8531 88.7931 31.6681 88.5974 31.5526 88.3607C31.4372 88.1241 31.3968 87.8578 31.437 87.5976C31.5063 87.1157 31.7613 86.68 32.1474 86.3834C32.5062 86.1216 32.9118 85.9308 33.3423 85.8215C34.779 85.49 36.258 85.3811 37.7277 85.4985L40.6729 85.6535C41.0362 85.655 41.3988 85.683 41.758 85.7375C41.6653 85.762 41.5696 85.7729 41.4738 85.7698C41.2929 85.7698 41.0217 85.7698 40.6729 85.7698C39.9754 85.7698 38.9678 85.7698 37.7213 85.7117C36.2785 85.636 34.8322 85.7665 33.4262 86.0992C33.0384 86.2048 32.673 86.3799 32.3476 86.6159C32.0283 86.8617 31.8193 87.2239 31.7663 87.6234C31.7364 87.8179 31.7667 88.0169 31.8534 88.1936C31.94 88.3703 32.0787 88.5162 32.2508 88.6116C32.6462 88.8231 33.0982 88.9044 33.5425 88.8441C34.0142 88.7897 34.4886 88.7616 34.9634 88.7602C35.433 88.7894 35.8972 88.8762 36.3456 89.0185C37.1711 89.2998 37.9671 89.661 38.7224 90.0971C40.1562 90.8916 41.5061 91.5245 42.7526 91.4728C43.7249 91.5012 44.6954 91.3726 45.6267 91.0918C45.9561 90.9856 46.2659 90.8263 46.5439 90.6203Z" fill="#6F4439"/>
<path d="M32.1528 85.04C32.1528 85.0788 31.8687 85.2209 31.3649 85.3113C30.7246 85.4214 30.0768 85.4819 29.4273 85.4921C28.4958 85.5692 27.5581 85.5105 26.6436 85.3178C27.5621 85.1763 28.492 85.1222 29.4208 85.1563C30.1829 85.1563 30.874 85.1111 31.3584 85.0788C31.6207 85.0336 31.8874 85.0205 32.1528 85.04Z" fill="#6F4439"/>
<path d="M35.4535 92.0994C34.2928 92.2856 33.106 92.2284 31.9686 91.9315C30.8311 91.6347 29.7678 91.1046 28.8462 90.3749C29.8955 90.8556 30.9741 91.2698 32.0755 91.615C33.1912 91.8416 34.3191 92.0034 35.4535 92.0994Z" fill="#6F4439"/>
<path d="M31.3267 88.728C31.8215 88.6303 32.3338 88.6728 32.8057 88.8507C33.3072 88.9179 33.7808 89.1212 34.175 89.4384C33.6809 89.436 33.1911 89.3463 32.7282 89.1736C32.2388 89.1069 31.7647 88.9561 31.3267 88.728Z" fill="#6F4439"/>
<path d="M0.945312 93.798L17.2406 85.8538C17.3714 85.7888 17.5173 85.7604 17.6629 85.7718C17.8085 85.7832 17.9483 85.8338 18.0674 85.9183L35.9838 97.3051C36.0855 97.3743 36.1714 97.4643 36.2358 97.5692C36.3002 97.674 36.3417 97.7912 36.3576 97.9132C36.3734 98.0353 36.3633 98.1593 36.3278 98.2771C36.2924 98.3949 36.2324 98.5038 36.1518 98.5968L26.6833 111.217L0.945312 93.798Z" fill="#263238"/>
<path d="M2.97949 94.3793L24.9133 108.821L34.8726 97.712L17.6085 86.9905L2.97949 94.3793Z" fill="white"/>
<path d="M11.505 90.0778L30.3321 102.782L24.9133 108.821L2.97949 94.3793L11.505 90.0778Z" fill="#E0E0E0"/>
<path d="M21.1286 90.4524L18.248 92.7904C18.2021 92.8303 18.1486 92.8604 18.0907 92.8789C18.0327 92.8973 17.9716 92.9037 17.9111 92.8977C17.8506 92.8916 17.792 92.8733 17.7389 92.8437C17.6857 92.8142 17.6392 92.7741 17.6021 92.7258C17.5622 92.68 17.5321 92.6264 17.5137 92.5685C17.4952 92.5105 17.4888 92.4495 17.4949 92.389C17.5009 92.3285 17.5193 92.2698 17.5489 92.2167C17.5784 92.1635 17.6185 92.117 17.6667 92.08L20.5473 89.7419C20.5932 89.702 20.6467 89.6719 20.7047 89.6534C20.7626 89.635 20.8237 89.6286 20.8842 89.6347C20.9447 89.6407 21.0033 89.6591 21.0565 89.6886C21.1096 89.7182 21.1561 89.7583 21.1932 89.8065C21.2322 89.8528 21.2616 89.9064 21.2795 89.9642C21.2974 90.022 21.3036 90.0829 21.2976 90.1431C21.2915 90.2033 21.2735 90.2617 21.2445 90.3149C21.2154 90.368 21.176 90.4148 21.1286 90.4524Z" fill="#E0E0E0"/>
<path d="M22.4273 91.5116L19.5532 93.8497C19.5073 93.8896 19.4538 93.9197 19.3958 93.9382C19.3379 93.9566 19.2768 93.963 19.2163 93.9569C19.1558 93.9509 19.0972 93.9325 19.044 93.903C18.9909 93.8734 18.9444 93.8333 18.9073 93.7851C18.8674 93.7392 18.8373 93.6857 18.8189 93.6278C18.8004 93.5698 18.794 93.5087 18.8001 93.4482C18.8061 93.3877 18.8245 93.3291 18.854 93.276C18.8836 93.2228 18.9237 93.1763 18.9719 93.1392L21.8525 90.8012C21.8979 90.7604 21.9514 90.7295 22.0095 90.7105C22.0675 90.6915 22.1289 90.6848 22.1897 90.6909C22.2505 90.697 22.3093 90.7157 22.3625 90.7458C22.4156 90.7759 22.4619 90.8168 22.4984 90.8658C22.5379 90.9121 22.5676 90.9659 22.5855 91.0241C22.6034 91.0823 22.6093 91.1436 22.6026 91.2041C22.5959 91.2646 22.577 91.3231 22.5468 91.376C22.5167 91.4289 22.476 91.4751 22.4273 91.5116Z" fill="#E0E0E0"/>
<path d="M23.8213 92.7517L20.9407 95.0898C20.8957 95.1316 20.8423 95.1633 20.7842 95.1829C20.726 95.2024 20.6643 95.2094 20.6032 95.2033C20.5421 95.1972 20.483 95.1781 20.4298 95.1474C20.3767 95.1167 20.3307 95.0751 20.2948 95.0252C20.253 94.9802 20.2213 94.9268 20.2018 94.8687C20.1822 94.8105 20.1752 94.7488 20.1813 94.6877C20.1875 94.6266 20.2065 94.5675 20.2372 94.5144C20.2679 94.4612 20.3096 94.4152 20.3594 94.3793L23.2335 92.0348C23.2794 91.9949 23.333 91.9648 23.3909 91.9464C23.4488 91.9279 23.5099 91.9215 23.5704 91.9276C23.6309 91.9336 23.6896 91.952 23.7427 91.9815C23.7958 92.0111 23.8424 92.0512 23.8794 92.0994C23.9207 92.145 23.9522 92.1986 23.9717 92.2569C23.9913 92.3153 23.9986 92.377 23.9931 92.4383C23.9877 92.4996 23.9696 92.5591 23.94 92.613C23.9104 92.667 23.87 92.7142 23.8213 92.7517Z" fill="#E0E0E0"/>
<path d="M24.3962 94.4374L22.7622 95.7679C22.7159 95.8069 22.6623 95.8363 22.6045 95.8542C22.5466 95.8721 22.4858 95.8783 22.4256 95.8723C22.3653 95.8662 22.3069 95.8482 22.2538 95.8192C22.2007 95.7901 22.1539 95.7507 22.1163 95.7033C22.0764 95.6574 22.0463 95.6039 22.0278 95.5459C22.0094 95.488 22.003 95.4269 22.009 95.3664C22.0151 95.3059 22.0335 95.2473 22.063 95.1941C22.0926 95.141 22.1327 95.0945 22.1809 95.0574L23.8149 93.7269C23.8612 93.6879 23.9148 93.6585 23.9727 93.6406C24.0305 93.6227 24.0913 93.6165 24.1515 93.6225C24.2118 93.6286 24.2702 93.6466 24.3233 93.6757C24.3764 93.7047 24.4232 93.7441 24.4608 93.7915C24.5007 93.8374 24.5308 93.8909 24.5493 93.9489C24.5677 94.0068 24.5741 94.0679 24.5681 94.1284C24.562 94.1889 24.5436 94.2475 24.5141 94.3007C24.4845 94.3538 24.4444 94.4003 24.3962 94.4374Z" fill="#E0E0E0"/>
<path d="M18.7069 90.0584L16.8081 91.3889C16.7597 91.4274 16.7038 91.4554 16.6439 91.4708C16.584 91.4863 16.5215 91.4889 16.4606 91.4785C16.3996 91.4682 16.3415 91.445 16.2901 91.4107C16.2387 91.3763 16.1951 91.3314 16.1622 91.2791C16.1289 91.2316 16.1054 91.1781 16.0929 91.1215C16.0804 91.0649 16.0792 91.0065 16.0894 90.9494C16.0996 90.8924 16.121 90.8379 16.1523 90.7892C16.1837 90.7405 16.2243 90.6984 16.272 90.6655L18.1838 89.3285C18.2329 89.2918 18.2889 89.2655 18.3484 89.2511C18.408 89.2368 18.4699 89.2347 18.5303 89.2449C18.5907 89.2552 18.6484 89.2776 18.6998 89.3109C18.7513 89.3441 18.7955 89.3875 18.8297 89.4383C18.8625 89.487 18.8853 89.5418 18.8969 89.5994C18.9085 89.6569 18.9086 89.7163 18.8972 89.7739C18.8858 89.8315 18.8631 89.8863 18.8305 89.9351C18.7978 89.9839 18.7558 90.0258 18.7069 90.0584Z" fill="#31751A"/>
<path d="M28.5173 96.4266L26.8768 98.0672C26.8356 98.1118 26.7857 98.1474 26.7301 98.1717C26.6745 98.1961 26.6145 98.2087 26.5538 98.2087C26.4931 98.2087 26.4331 98.1961 26.3775 98.1717C26.3219 98.1474 26.272 98.1118 26.2309 98.0672C26.1863 98.026 26.1507 97.9761 26.1263 97.9205C26.1019 97.8649 26.0894 97.8049 26.0894 97.7442C26.0894 97.6835 26.1019 97.6235 26.1263 97.5679C26.1507 97.5124 26.1863 97.4624 26.2309 97.4213L27.8714 95.8002C27.9125 95.7555 27.9625 95.7199 28.018 95.6956C28.0736 95.6712 28.1337 95.6586 28.1943 95.6586C28.255 95.6586 28.315 95.6712 28.3706 95.6956C28.4262 95.7199 28.4761 95.7555 28.5173 95.8002C28.5589 95.841 28.5919 95.8898 28.6145 95.9436C28.637 95.9973 28.6486 96.0551 28.6486 96.1134C28.6486 96.1717 28.637 96.2295 28.6145 96.2832C28.5919 96.337 28.5589 96.3858 28.5173 96.4266Z" fill="#31751A"/>
<path d="M26.6833 111.217C26.5816 111.377 26.4494 111.515 26.2943 111.623C26.1393 111.731 25.9644 111.808 25.7797 111.849C25.5949 111.89 25.404 111.894 25.2177 111.861C25.0314 111.828 24.8535 111.758 24.694 111.656L0.745136 96.3298C0.585658 96.2281 0.447789 96.0959 0.339404 95.9408C0.23102 95.7858 0.154243 95.6109 0.113459 95.4262C0.0726744 95.2414 0.0686819 95.0505 0.101709 94.8642C0.134736 94.6779 0.204135 94.5 0.305944 94.3406C0.512491 94.0195 0.838026 93.7936 1.21103 93.7125C1.58403 93.6313 1.97399 93.7016 2.29523 93.9078L26.2441 109.228C26.4036 109.33 26.5415 109.462 26.6499 109.617C26.7583 109.772 26.835 109.947 26.8758 110.132C26.9166 110.316 26.9206 110.507 26.8876 110.694C26.8545 110.88 26.7851 111.058 26.6833 111.217Z" fill="#263238"/>
<path d="M126.095 87.1067L130.868 85.5889C130.868 85.5889 139.639 78.5425 149.482 79.4725C155.723 80.1617 161.771 82.05 167.295 85.0335L177.532 90.6397L203.852 97.6861L188.693 61.9565L203.658 55.7497C203.658 55.7497 218.616 79.8407 223.137 86.6223C227.658 93.404 231.094 100.25 231.63 105.837C232.167 111.424 227.962 119.239 216.394 120.569C204.827 121.9 155.321 118.593 155.321 118.593L117.214 117.495L126.095 87.1067Z" fill="#263238"/>
<path d="M126.096 87.1068C126.096 87.1068 126.051 87.2876 125.954 87.6299C125.857 87.9722 125.715 88.4954 125.521 89.1671C125.134 90.5234 124.559 92.5192 123.81 95.1156C122.311 100.283 120.115 107.891 117.351 117.489L117.261 117.366L144.536 118.147C154.805 118.264 166.14 119.207 178.36 119.768C184.47 120.066 190.799 120.35 197.316 120.544C200.546 120.627 203.891 120.705 207.243 120.711C208.916 120.711 210.608 120.711 212.301 120.647C213.147 120.647 213.999 120.602 214.845 120.518C215.698 120.476 216.548 120.385 217.39 120.246C220.837 119.807 224.094 118.421 226.8 116.242C228.167 115.136 229.29 113.758 230.098 112.196C230.906 110.634 231.382 108.922 231.496 107.168C231.522 106.727 231.522 106.284 231.496 105.843C231.438 105.398 231.399 104.952 231.315 104.513C231.169 103.629 230.969 102.756 230.714 101.897C230.194 100.158 229.547 98.4586 228.777 96.8142C227.217 93.4854 225.407 90.2792 223.364 87.223C219.844 81.8946 216.505 76.5468 213.205 71.3023L203.517 55.8014L203.723 55.866L188.752 62.0663L188.842 61.8532L203.982 97.628L204.098 97.8928L203.814 97.8218L177.501 90.7624L169.608 86.4286C168.317 85.744 167.122 85.0271 165.888 84.4135C164.655 83.7999 163.415 83.2509 162.187 82.76C157.766 80.9409 153.078 79.8503 148.308 79.5307C146.316 79.4818 144.326 79.699 142.391 80.1766C140.726 80.5904 139.099 81.1458 137.528 81.8365C135.185 82.8529 132.967 84.1382 130.921 85.6665L127.317 86.7903L126.135 87.1455L127.291 86.758L130.895 85.589C132.94 84.046 135.157 82.7456 137.502 81.7137C139.077 81.0137 140.708 80.4477 142.379 80.0216C144.329 79.5467 146.333 79.3295 148.34 79.3757C153.134 79.6899 157.846 80.7806 162.291 82.605C163.522 83.0959 164.762 83.6449 166.011 84.252C167.257 84.8979 168.478 85.589 169.744 86.2671L177.643 90.588L203.969 97.6151L203.801 97.8089L188.629 62.0534L188.565 61.9049L188.713 61.8403L203.678 55.6334L203.807 55.5818L203.885 55.698L213.573 71.199C216.88 76.4434 220.219 81.7913 223.732 87.1132C225.789 90.1791 227.607 93.3986 229.171 96.7432C229.942 98.4026 230.589 100.117 231.108 101.871C231.365 102.745 231.568 103.634 231.715 104.532C231.806 104.978 231.845 105.43 231.903 105.882C231.961 106.334 231.967 106.793 231.903 107.251C231.789 109.053 231.303 110.81 230.475 112.414C229.647 114.017 228.494 115.43 227.091 116.565C224.336 118.774 221.023 120.175 217.519 120.615C216.664 120.754 215.801 120.844 214.936 120.886C214.083 120.97 213.224 120.989 212.352 121.015C210.647 121.08 208.961 121.073 207.282 121.08C203.924 121.08 200.61 120.989 197.349 120.899C190.825 120.705 184.489 120.414 178.379 120.111C166.159 119.53 154.831 118.574 144.562 118.444L117.28 117.631H117.157V117.508L123.739 95.1285L125.489 89.2058C125.689 88.56 125.838 88.0368 125.948 87.688C126.057 87.3393 126.096 87.1068 126.096 87.1068Z" fill="#455A64"/>
<path d="M37.6562 108.369C37.6562 108.369 30.9068 104.532 29.5957 104.455C27.7162 104.339 19.4426 104.623 18.4286 104.558C18.2436 104.546 18.0591 104.587 17.8957 104.674C17.7323 104.762 17.5967 104.893 17.504 105.054C17.4113 105.214 17.3653 105.397 17.3712 105.582C17.3771 105.768 17.4346 105.948 17.5373 106.102C17.9184 106.748 18.829 107.794 21.4125 107.729C22.9967 107.628 24.585 107.848 26.0822 108.375C26.728 108.634 26.5407 109.415 26.5407 109.415C26.5407 109.415 22.827 109.615 21.7484 109.364C20.2629 109.015 15.3607 105.682 15.3607 105.682L13.4231 104.436C13.4231 104.436 12.6028 105.43 13.8817 107.284C14.7603 108.522 15.7228 109.698 16.7622 110.804C16.7622 110.804 14.9538 111.902 16.5168 113.626C16.5168 113.626 15.3865 115.758 17.9571 116.998C18.3255 117.911 18.9002 118.727 19.6364 119.381C20.4179 120.027 22.3942 119.885 23.6085 119.962C25.4215 119.977 27.2325 119.834 29.0209 119.536C30.63 119.193 32.2191 118.762 33.781 118.244L39.8974 118.593L40.4528 108.175L37.6562 108.369Z" fill="#AE7461"/>
<path d="M20.6375 112.98C19.803 112.822 19.0055 112.509 18.2865 112.057C17.514 111.704 16.8133 111.211 16.2197 110.604C16.9939 110.928 17.7393 111.317 18.448 111.766C19.2095 112.111 19.9418 112.517 20.6375 112.98Z" fill="#6F4439"/>
<path d="M19.8304 115.293C19.1409 115.242 18.4749 115.02 17.8928 114.647C17.2691 114.38 16.7195 113.965 16.291 113.439C16.9028 113.689 17.4908 113.994 18.0478 114.35C18.6687 114.611 19.2652 114.926 19.8304 115.293Z" fill="#6F4439"/>
<path d="M19.9729 117.799C19.3753 117.807 18.788 117.643 18.2807 117.327C17.7243 117.111 17.2421 116.739 16.8921 116.255C17.4311 116.461 17.9482 116.721 18.4357 117.03C18.9724 117.234 19.4873 117.492 19.9729 117.799Z" fill="#6F4439"/>
<g opacity="0.3">
<path d="M87.5181 108.621C90.967 104.1 92.7367 98.5128 93.4536 92.8873C94.1705 87.2618 94.0026 81.9075 93.7249 76.2561C92.6221 87.2074 90.5449 98.0384 87.5181 108.621Z" fill="black"/>
</g>
<path d="M94.3247 69.7069C94.3829 70.2817 94.3247 68.4539 94.3247 69.061C94.1633 76.8115 89.6163 109.68 83.7066 116.08C79.1855 120.97 36.9326 118.89 36.9326 118.89L37.3976 107.878C37.3976 107.878 38.5344 107.549 46.1234 106.586C53.7124 105.624 69.2068 101.684 69.2068 101.684L74.3738 67.2655" fill="#FF8A00"/>
<path d="M74.3734 67.2655C74.3734 67.2655 74.3734 67.4722 74.3023 67.9114L74.0504 69.7198C73.8179 71.3151 73.4756 73.6467 73.0364 76.6306C72.1451 82.6179 70.8663 91.2273 69.2968 101.729V101.82H69.2128C64.6917 102.976 59.7315 104.177 54.4095 105.301C51.7485 105.856 48.9971 106.399 46.1359 106.78C43.2747 107.161 40.323 107.49 37.4295 108.072L37.5458 107.917C37.3972 111.43 37.2422 115.144 37.0872 118.929L36.9257 118.754C39.9097 118.89 43.0744 118.993 46.2844 119.071C52.3298 119.213 58.233 119.245 63.9361 119.071C66.7844 118.987 69.581 118.858 72.3324 118.638C74.9971 118.463 77.6443 118.083 80.2508 117.501C80.877 117.347 81.492 117.151 82.0915 116.914C82.6787 116.707 83.2111 116.369 83.6481 115.925C84.4422 114.966 85.0948 113.898 85.5857 112.754C86.5611 110.557 87.3771 108.293 88.0271 105.979C89.3188 101.51 90.2295 97.2598 90.9852 93.3716C92.4771 85.5889 93.3232 79.227 93.8141 74.8222C94.0595 72.6198 94.2016 70.9017 94.2597 69.7392C94.2597 69.4485 94.2597 69.1902 94.2985 68.9706C94.2985 68.9706 94.2985 68.9706 94.3308 68.9706V69.5067C94.3308 69.6552 94.3308 69.765 94.292 69.849C94.2863 69.8083 94.2863 69.767 94.292 69.7263C94.292 69.7263 94.292 69.7715 94.292 69.8361C94.292 69.7715 94.292 69.6552 94.292 69.5067V68.9964C94.292 68.9964 94.292 68.9964 94.3372 68.9964C94.3372 69.2203 94.3372 69.4787 94.3372 69.7715C94.2985 70.9341 94.1758 72.6521 93.9562 74.861C93.5041 79.2723 92.6644 85.647 91.2241 93.4427C90.4814 97.3179 89.5836 101.594 88.2983 106.082C87.6517 108.411 86.8379 110.691 85.8634 112.903C85.3562 114.066 84.6888 115.153 83.8806 116.132C83.4106 116.606 82.8415 116.97 82.2142 117.198C81.6032 117.443 80.975 117.644 80.3347 117.798C77.7075 118.39 75.0387 118.779 72.3518 118.961C69.6133 119.187 66.8102 119.323 63.9555 119.407C58.2459 119.568 52.3298 119.536 46.2844 119.407C43.0551 119.329 39.9097 119.226 36.9257 119.09H36.7578V118.929C36.9193 115.137 37.0743 111.43 37.2293 107.917V107.794H37.3456C38.8504 107.471 40.3101 107.29 41.7762 107.077L46.1036 106.515C48.9454 106.14 51.6968 105.598 54.3513 105.049C59.6733 103.938 64.6272 102.75 69.1483 101.606L69.0514 101.716C70.6661 91.2209 71.9901 82.6179 72.9266 76.6306C73.3916 73.6532 73.7598 71.328 74.0117 69.7327C74.1344 68.9512 74.2313 68.3441 74.3023 67.9307C74.3734 67.5174 74.3734 67.2655 74.3734 67.2655Z" fill="#263238"/>
</svg>
