<svg width="40" height="40" viewBox="0 0 40 40" fill="none" xmlns="http://www.w3.org/2000/svg">
<path d="M16.7449 28.1C17.3795 28.6601 18.2131 29 19.1261 29C20.0391 29 20.8727 28.6601 21.5074 28.1M24.5261 16.4C24.5261 14.9678 23.9572 13.5943 22.9445 12.5816C21.9318 11.5689 20.5583 11 19.1261 11C17.6939 11 16.3204 11.5689 15.3077 12.5816C14.295 13.5943 13.7261 14.9678 13.7261 16.4C13.7261 19.1812 13.0245 21.0854 12.2408 22.3449C11.5797 23.4073 11.2492 23.9385 11.2613 24.0867C11.2747 24.2508 11.3095 24.3133 11.4417 24.4114C11.5611 24.5 12.0994 24.5 13.1761 24.5H25.0761C26.1528 24.5 26.6911 24.5 26.8105 24.4114C26.9427 24.3133 26.9775 24.2508 26.9909 24.0867C27.003 23.9385 26.6725 23.4073 26.0114 22.3449C25.2277 21.0854 24.5261 19.1812 24.5261 16.4Z" stroke="#6C737F" stroke-width="2" stroke-linecap="round" stroke-linejoin="round"/>
</svg>
