<svg width="19" height="17" viewBox="0 0 19 17" fill="none" xmlns="http://www.w3.org/2000/svg">
<path fill-rule="evenodd" clip-rule="evenodd" d="M13.75 4.375C12.5419 4.375 11.5625 3.39562 11.5625 2.1875C11.5625 0.979377 12.5419 0 13.75 0C14.9581 0 15.9375 0.979377 15.9375 2.1875C15.9375 3.39562 14.9581 4.375 13.75 4.375ZM4.375 4.375C3.16688 4.375 2.1875 3.39562 2.1875 2.1875C2.1875 0.979377 3.16688 0 4.375 0C5.58312 0 6.5625 0.979377 6.5625 2.1875C6.5625 3.39562 5.58312 4.375 4.375 4.375ZM9.0625 9.37513C7.68172 9.37513 6.56238 8.25578 6.56238 6.875C6.56238 5.49422 7.68172 4.37488 9.0625 4.37488C10.4433 4.37488 11.5626 5.49422 11.5626 6.875C11.5626 8.25578 10.4433 9.37513 9.0625 9.37513ZM14.063 14.3746C14.063 12.3033 12.3837 10.6246 10.3126 10.6246H7.81282C5.74176 10.6246 4.06243 12.3033 4.06243 14.3746V14.9996C4.06243 15.4967 4.26031 15.9738 4.61166 16.3254C4.96368 16.6771 5.44022 16.8746 5.93762 16.8746H12.1878C12.6852 16.8746 13.1618 16.6771 13.5138 16.3254C13.8651 15.9738 14.063 15.4967 14.063 14.9996V14.3746ZM3.48156 11.875H1.875C1.37781 11.875 0.900938 11.6775 0.549062 11.3259C0.1975 10.9741 0 10.4972 0 10V9.375C0 8.38031 0.395 7.42656 1.09844 6.72344C1.80156 6.02 2.75531 5.625 3.75 5.625H5C5.17281 5.625 5.34469 5.63688 5.51406 5.66031C5.38344 6.04125 5.3125 6.45 5.3125 6.875C5.3125 7.92875 5.74812 8.88188 6.44906 9.56313C5.18531 9.92063 4.125 10.7622 3.48156 11.875ZM12.6109 5.66031C12.7803 5.63688 12.9522 5.625 13.125 5.625H14.375C15.3697 5.625 16.3234 6.02 17.0266 6.72344C17.73 7.42656 18.125 8.38031 18.125 9.375V10C18.125 10.4972 17.9275 10.9741 17.5759 11.3259C17.2241 11.6775 16.7472 11.875 16.25 11.875H14.6434C14 10.7622 12.9397 9.92063 11.6759 9.56313C12.3769 8.88188 12.8125 7.92875 12.8125 6.875C12.8125 6.45 12.7416 6.04125 12.6109 5.66031Z" fill="#888D97"/>
</svg>
