<svg width="20" height="20" viewBox="0 0 20 20" fill="none" xmlns="http://www.w3.org/2000/svg">
<g clip-path="url(#clip0_0_871)">
<path fill-rule="evenodd" clip-rule="evenodd" d="M6.57294 17.6567H3.37434C3.24546 17.6567 3.14001 17.5513 3.14001 17.4224V11.9625C3.14001 11.2947 3.69069 10.744 4.35853 10.744H5.58876C6.25659 10.744 6.80727 11.2947 6.80727 11.9742V17.4224C6.80727 17.5513 6.70182 17.6567 6.57294 17.6567ZM10.6151 17.6567H7.41652C7.28764 17.6567 7.18219 17.5513 7.18219 17.4224V9.94727C7.18219 9.27943 7.73287 8.72876 8.40071 8.72876H9.63093C10.3105 8.72876 10.8494 9.27943 10.8494 9.95899V17.4224C10.8494 17.5513 10.7557 17.6567 10.6151 17.6567ZM14.669 17.6567H11.4704C11.3298 17.6567 11.2361 17.5513 11.2361 17.4224V11.9625C11.2361 11.2947 11.775 10.744 12.4429 10.744H13.6731C14.3527 10.744 14.9033 11.2947 14.9033 11.9742V17.4224C14.9033 17.5513 14.7979 17.6567 14.669 17.6567ZM18.7112 17.6567H15.5126C15.3837 17.6567 15.2783 17.5513 15.2783 17.4224V7.75629C15.2783 7.08845 15.8172 6.53778 16.4851 6.53778H17.727C18.3948 6.53778 18.9455 7.08845 18.9455 7.76801V17.4224C18.9455 17.5513 18.8401 17.6567 18.7112 17.6567Z" fill="#6C737F"/>
<path fill-rule="evenodd" clip-rule="evenodd" d="M19.7657 17.6567H2.31986C2.19098 17.6567 2.08553 17.5513 2.08553 17.4224C2.08553 17.2935 2.19098 17.188 2.31986 17.188H19.7657C19.8946 17.188 20 17.2935 20 17.4224C20 17.5513 19.8946 17.6567 19.7657 17.6567ZM0.234329 8.36555C0.175747 8.36555 0.117165 8.34212 0.0702988 8.29525C-0.0234329 8.20152 -0.0234329 8.04921 0.0702988 7.95547L1.8512 6.18629C1.93322 6.09256 2.08553 6.09256 2.17926 6.18629C2.27299 6.28002 2.27299 6.42062 2.17926 6.51435L0.39836 8.29525C0.351494 8.34212 0.292912 8.36555 0.234329 8.36555ZM5.08494 8.29525C5.02636 8.29525 4.95606 8.27182 4.92091 8.22495L3.19859 6.51435C3.10486 6.42062 3.10486 6.28002 3.19859 6.18629C3.29233 6.09256 3.44464 6.09256 3.52665 6.18629L5.24897 7.89689C5.34271 7.99062 5.34271 8.14294 5.24897 8.22495C5.20211 8.27182 5.14353 8.29525 5.08494 8.29525ZM6.23316 8.14294C6.19801 8.14294 6.15114 8.13122 6.11599 8.1195C6.01054 8.04921 5.96368 7.90861 6.03398 7.79144L8.07264 4.25307C8.14294 4.14762 8.28354 4.11248 8.4007 4.17106C8.50615 4.24136 8.5413 4.38195 8.48272 4.4874L6.44405 8.02577C6.39719 8.10779 6.31517 8.14294 6.23316 8.14294ZM11.4704 5.3427C11.4236 5.3427 11.3884 5.3427 11.3533 5.31927L9.4669 4.22964C9.36145 4.15934 9.31459 4.01874 9.38489 3.9133C9.44347 3.79613 9.59578 3.76098 9.70123 3.81956L11.5876 4.90919C11.693 4.97949 11.7399 5.12009 11.6696 5.22554C11.6344 5.30755 11.5524 5.3427 11.4704 5.3427ZM12.9701 5.14352C12.9115 5.14352 12.853 5.13181 12.8061 5.08494C12.7124 4.99121 12.7124 4.8389 12.8061 4.74516L15.1494 2.40187C15.2431 2.30814 15.3954 2.30814 15.4892 2.40187C15.5829 2.4956 15.5829 2.64792 15.4892 2.72993L13.1459 5.08494C13.099 5.13181 13.0404 5.14352 12.9701 5.14352Z" fill="#6C737F"/>
<path fill-rule="evenodd" clip-rule="evenodd" d="M2.69477 6.86585C2.02694 6.86585 1.49969 6.32689 1.49969 5.67077C1.49969 5.01465 2.02694 4.47569 2.69477 4.47569C3.3509 4.47569 3.87814 5.01465 3.87814 5.67077C3.87814 6.32689 3.3509 6.86585 2.69477 6.86585ZM5.75277 9.93556C5.09665 9.93556 4.56941 9.3966 4.56941 8.74048C4.56941 8.08436 5.09665 7.5454 5.75277 7.5454C6.42061 7.5454 6.94785 8.08436 6.94785 8.74048C6.94785 9.3966 6.42061 9.93556 5.75277 9.93556ZM8.75218 4.73345C8.09606 4.73345 7.56882 4.20621 7.56882 3.55009C7.56882 2.89397 8.09606 2.35501 8.75218 2.35501C9.40831 2.35501 9.94726 2.89397 9.94726 3.55009C9.94726 4.20621 9.40831 4.73345 8.75218 4.73345ZM12.3023 6.78383C11.6462 6.78383 11.1072 6.24488 11.1072 5.58875C11.1072 4.93263 11.6462 4.40539 12.3023 4.40539C12.9584 4.40539 13.4856 4.93263 13.4856 5.58875C13.4856 6.24488 12.9584 6.78383 12.3023 6.78383Z" fill="#6C737F"/>
</g>
<defs>
<clipPath id="clip0_0_871">
<rect width="20" height="20" fill="white"/>
</clipPath>
</defs>
</svg>
