<svg width="18" height="13" viewBox="0 0 18 13" fill="none" xmlns="http://www.w3.org/2000/svg">
<path d="M16.5 0.833328H1.50002C1.39058 0.8333 1.2822 0.854835 1.18108 0.896704C1.07997 0.938573 0.988089 0.999955 0.910701 1.07734C0.833313 1.15473 0.771932 1.24661 0.730063 1.34773C0.688194 1.44884 0.666659 1.55722 0.666687 1.66666V10.8333C0.667192 11.2752 0.842949 11.6988 1.1554 12.0113C1.46785 12.3237 1.89148 12.4995 2.33335 12.5H15.6667C16.1085 12.4994 16.5321 12.3236 16.8446 12.0112C17.157 11.6988 17.3328 11.2752 17.3334 10.8333V1.66666C17.3334 1.55721 17.3119 1.44882 17.27 1.34769C17.2282 1.24655 17.1668 1.15466 17.0894 1.07727C17.012 0.999872 16.9201 0.938492 16.819 0.896635C16.7179 0.854778 16.6095 0.833266 16.5 0.833328ZM11.7208 6.19959L10.5739 7.1169C10.5268 7.15464 10.4921 7.20559 10.4741 7.26322C10.4562 7.32085 10.4559 7.38253 10.4732 7.44034L10.9987 9.19225C11.017 9.25329 11.0156 9.31857 10.9947 9.37877C10.9737 9.43896 10.9343 9.49101 10.882 9.52749C10.8298 9.56397 10.7673 9.58302 10.7036 9.58193C10.6399 9.58084 10.5781 9.55966 10.5271 9.52141L9.18169 8.51236C9.12928 8.47305 9.06553 8.4518 9.00002 8.4518C8.93451 8.4518 8.87076 8.47305 8.81835 8.51236L7.47294 9.52143C7.42195 9.55967 7.36019 9.58084 7.29647 9.58192C7.23274 9.58301 7.1703 9.56396 7.11804 9.52748C7.06578 9.491 7.02636 9.43896 7.00541 9.37877C6.98445 9.31858 6.98303 9.25331 7.00134 9.19226L7.52685 7.44035C7.54426 7.38255 7.54397 7.32085 7.52602 7.26321C7.50807 7.20557 7.47329 7.15462 7.42615 7.11691L6.27928 6.19959C6.23031 6.16038 6.19472 6.10693 6.17744 6.04663C6.16016 5.98632 6.16203 5.92214 6.1828 5.86295C6.20358 5.80376 6.24222 5.75248 6.2934 5.7162C6.34457 5.67991 6.40576 5.66043 6.46849 5.66042H7.78196C7.84121 5.6604 7.89916 5.64301 7.94863 5.61041C7.9981 5.5778 8.03692 5.5314 8.0603 5.47696L8.72172 3.93348C8.74507 3.87901 8.78388 3.83259 8.83336 3.79997C8.88283 3.76735 8.94079 3.74996 9.00005 3.74996C9.05931 3.74996 9.11727 3.76735 9.16675 3.79997C9.21622 3.83259 9.25504 3.87901 9.27839 3.93348L9.93981 5.47696C9.96319 5.5314 10.002 5.5778 10.0515 5.61041C10.101 5.64301 10.1589 5.6604 10.2181 5.66042H11.5316C11.5943 5.66044 11.6555 5.67994 11.7067 5.71622C11.7579 5.75251 11.7965 5.80379 11.8172 5.86298C11.838 5.92217 11.8399 5.98635 11.8226 6.04665C11.8053 6.10694 11.7697 6.16039 11.7208 6.19959Z" fill="#6C737F"/>
</svg>
