<svg width="20" height="20" viewBox="0 0 20 20" fill="none" xmlns="http://www.w3.org/2000/svg">
<path d="M16.25 3.125H3.74998C3.3396 3.125 2.93324 3.20583 2.55409 3.36288C2.17495 3.51992 1.83045 3.75011 1.54027 4.04029C0.954221 4.62634 0.62498 5.4212 0.62498 6.25V12.9938C0.615472 13.643 0.801797 14.2801 1.15966 14.8219C1.51753 15.3637 2.03034 15.7851 2.63123 16.0312C3.19783 16.2603 3.82078 16.3112 4.41705 16.1772C5.01333 16.0432 5.5546 15.7307 5.96873 15.2812L8.61248 12.5H11.3875L14.0312 15.2812C14.4449 15.7314 14.9861 16.0445 15.5826 16.1785C16.1791 16.3126 16.8023 16.2612 17.3687 16.0312C17.9696 15.7851 18.4824 15.3637 18.8403 14.8219C19.1982 14.2801 19.3845 13.643 19.375 12.9938V6.25C19.375 5.4212 19.0457 4.62634 18.4597 4.04029C17.8736 3.45424 17.0788 3.125 16.25 3.125ZM7.49998 8.75H6.24998V10C6.24998 10.1658 6.18413 10.3247 6.06692 10.4419C5.94971 10.5592 5.79074 10.625 5.62498 10.625C5.45922 10.625 5.30025 10.5592 5.18304 10.4419C5.06583 10.3247 4.99998 10.1658 4.99998 10V8.75H3.74998C3.58422 8.75 3.42525 8.68415 3.30804 8.56694C3.19083 8.44973 3.12498 8.29076 3.12498 8.125C3.12498 7.95924 3.19083 7.80027 3.30804 7.68306C3.42525 7.56585 3.58422 7.5 3.74998 7.5H4.99998V6.25C4.99998 6.08424 5.06583 5.92527 5.18304 5.80806C5.30025 5.69085 5.45922 5.625 5.62498 5.625C5.79074 5.625 5.94971 5.69085 6.06692 5.80806C6.18413 5.92527 6.24998 6.08424 6.24998 6.25V7.5H7.49998C7.66574 7.5 7.82471 7.56585 7.94192 7.68306C8.05913 7.80027 8.12498 7.95924 8.12498 8.125C8.12498 8.29076 8.05913 8.44973 7.94192 8.56694C7.82471 8.68415 7.66574 8.75 7.49998 8.75ZM14.375 10.625C13.8805 10.625 13.3972 10.4784 12.9861 10.2037C12.5749 9.92897 12.2545 9.53852 12.0653 9.08171C11.8761 8.62489 11.8266 8.12223 11.923 7.63727C12.0195 7.15232 12.2576 6.70686 12.6072 6.35723C12.9568 6.0076 13.4023 5.7695 13.8873 5.67304C14.3722 5.57657 14.8749 5.62608 15.3317 5.8153C15.7885 6.00452 16.179 6.32495 16.4537 6.73607C16.7284 7.1472 16.875 7.63055 16.875 8.125C16.875 8.78804 16.6116 9.42393 16.1427 9.89277C15.6739 10.3616 15.038 10.625 14.375 10.625ZM15.625 8.125C15.625 8.37223 15.5517 8.6139 15.4143 8.81946C15.277 9.02502 15.0817 9.18524 14.8533 9.27985C14.6249 9.37446 14.3736 9.39921 14.1311 9.35098C13.8886 9.30275 13.6659 9.1837 13.4911 9.00888C13.3163 8.83407 13.1972 8.61134 13.149 8.36886C13.1008 8.12639 13.1255 7.87505 13.2201 7.64665C13.3147 7.41824 13.475 7.22301 13.6805 7.08566C13.8861 6.94831 14.1278 6.875 14.375 6.875C14.7065 6.875 15.0244 7.0067 15.2589 7.24112C15.4933 7.47554 15.625 7.79348 15.625 8.125Z" fill="#6C737F"/>
</svg>
