<svg width="40" height="40" viewBox="0 0 40 40" fill="none" xmlns="http://www.w3.org/2000/svg">
<path d="M40 0H0V40H40V0Z" fill="#E04403"/>
<path d="M32.8989 5.6857H22.8977V15.6863H32.8989V5.6857Z" fill="white"/>
<path d="M10.3548 32.3804C8.72561 32.3804 6.98932 31.9265 6.98932 27.97C6.98932 24.0136 9.08404 23.3154 10.8459 23.3154C11.5627 23.3056 12.2716 23.465 12.9151 23.7808V25.1912C12.2505 24.9445 11.5534 24.7963 10.8459 24.7513C9.95219 24.7513 8.75122 25.2308 8.75122 27.863C8.75122 30.6558 9.6822 30.9909 10.3269 30.9909C10.7292 30.9797 11.13 30.9369 11.5256 30.8629V28.1842H10.3269L10.2012 26.8343H13.2898V31.9265C12.3334 32.1959 11.3479 32.3483 10.3548 32.3804Z" fill="white"/>
<path d="M20.1489 24.9444H18.2078V32.2546H16.4413V24.9444H14.3V23.4317H20.3514L20.1489 24.9444Z" fill="white"/>
<path d="M23.9195 32.3804C22.4439 32.3804 20.7937 31.9149 20.7937 27.8421C20.7937 23.7692 22.8721 23.3061 24.0824 23.3061C24.6416 23.2945 25.1969 23.4016 25.7117 23.6203V25.0446C25.2155 24.8724 24.6976 24.7705 24.1732 24.7421C23.3167 24.7421 22.5603 25.2587 22.5603 27.8421C22.5603 30.1508 23.1026 30.9305 24.0475 30.9305C24.6149 30.9103 25.176 30.8043 25.7117 30.6163V32.0406C25.1458 32.282 24.5344 32.3979 23.9195 32.3804Z" fill="white"/>
<path d="M29.8033 32.3803C28.4417 32.3803 26.6519 32.1033 26.6519 27.842C26.6519 23.5806 28.5558 23.306 29.8033 23.306C31.0508 23.306 32.9547 23.6086 32.9547 27.842C32.9547 32.1406 31.1346 32.3803 29.8033 32.3803ZM29.8033 24.5651C28.9212 24.5651 28.4068 25.1446 28.4068 27.842C28.4068 30.5789 29.0492 31.1212 29.8033 31.1212C30.5574 31.1212 31.1882 30.6162 31.1882 27.842C31.1882 25.1958 30.6691 24.5651 29.8033 24.5651Z" fill="white"/>
</svg>
