<svg width="56" height="25" viewBox="0 0 56 25" fill="none" xmlns="http://www.w3.org/2000/svg">
<path d="M5.13068 8.06235H6.36364V15.3408C6.36364 15.9904 6.24432 16.5422 6.00568 16.9963C5.76705 17.4504 5.43063 17.7951 4.99645 18.0304C4.56226 18.2657 4.05019 18.3834 3.46023 18.3834C2.90341 18.3834 2.40791 18.2823 1.97372 18.0801C1.53954 17.8746 1.19815 17.5829 0.949574 17.2051C0.700994 16.8273 0.576705 16.3782 0.576705 15.8578H1.78977C1.78977 16.1462 1.86103 16.3981 2.00355 16.6135C2.14938 16.8256 2.34825 16.9913 2.60014 17.1106C2.85204 17.23 3.13873 17.2896 3.46023 17.2896C3.81487 17.2896 4.11648 17.2151 4.36506 17.0659C4.61364 16.9168 4.80256 16.698 4.93182 16.4097C5.06439 16.118 5.13068 15.7617 5.13068 15.3408V8.06235ZM11.7777 18.4033C11.0883 18.4033 10.4834 18.2392 9.96307 17.9111C9.44602 17.5829 9.04167 17.1239 8.75 16.5339C8.46165 15.944 8.31747 15.2546 8.31747 14.4658C8.31747 13.6703 8.46165 12.9759 8.75 12.3827C9.04167 11.7894 9.44602 11.3287 9.96307 11.0006C10.4834 10.6724 11.0883 10.5084 11.7777 10.5084C12.4671 10.5084 13.0703 10.6724 13.5874 11.0006C14.1077 11.3287 14.5121 11.7894 14.8004 12.3827C15.0921 12.9759 15.2379 13.6703 15.2379 14.4658C15.2379 15.2546 15.0921 15.944 14.8004 16.5339C14.5121 17.1239 14.1077 17.5829 13.5874 17.9111C13.0703 18.2392 12.4671 18.4033 11.7777 18.4033ZM11.7777 17.3493C12.3014 17.3493 12.7322 17.2151 13.0703 16.9466C13.4084 16.6781 13.6586 16.3251 13.821 15.8876C13.9834 15.4501 14.0646 14.9762 14.0646 14.4658C14.0646 13.9553 13.9834 13.4797 13.821 13.0389C13.6586 12.5981 13.4084 12.2418 13.0703 11.97C12.7322 11.6982 12.3014 11.5624 11.7777 11.5624C11.254 11.5624 10.8232 11.6982 10.4851 11.97C10.147 12.2418 9.89678 12.5981 9.73438 13.0389C9.57197 13.4797 9.49077 13.9553 9.49077 14.4658C9.49077 14.9762 9.57197 15.4501 9.73438 15.8876C9.89678 16.3251 10.147 16.6781 10.4851 16.9466C10.8232 17.2151 11.254 17.3493 11.7777 17.3493ZM17.0289 18.2442V10.6078H18.2022V18.2442H17.0289ZM17.6255 9.33508C17.3968 9.33508 17.1996 9.25719 17.0339 9.10142C16.8715 8.94564 16.7903 8.75838 16.7903 8.53963C16.7903 8.32088 16.8715 8.13361 17.0339 7.97784C17.1996 7.82206 17.3968 7.74417 17.6255 7.74417C17.8542 7.74417 18.0498 7.82206 18.2122 7.97784C18.3779 8.13361 18.4608 8.32088 18.4608 8.53963C18.4608 8.75838 18.3779 8.94564 18.2122 9.10142C18.0498 9.25719 17.8542 9.33508 17.6255 9.33508ZM21.5245 13.6504V18.2442H20.3512V10.6078H21.4847V11.801H21.5842C21.7631 11.4132 22.0349 11.1017 22.3995 10.8663C22.7641 10.6277 23.2347 10.5084 23.8114 10.5084C24.3285 10.5084 24.7809 10.6144 25.1687 10.8266C25.5565 11.0354 25.8581 11.3535 26.0735 11.7811C26.2889 12.2053 26.3967 12.7423 26.3967 13.3919V18.2442H25.2234V13.4714C25.2234 12.8715 25.0676 12.4042 24.756 12.0695C24.4445 11.7314 24.0169 11.5624 23.4734 11.5624C23.0988 11.5624 22.7641 11.6436 22.4691 11.806C22.1774 11.9684 21.9471 12.2053 21.7781 12.5169C21.609 12.8285 21.5245 13.2063 21.5245 13.6504Z" fill="#FB5622"/>
<path d="M44.6387 19.166C44.8164 19.166 44.985 19.1273 45.1445 19.0498C45.3086 18.9769 45.4795 18.8562 45.6572 18.6875L51.0713 13.6016C51.2035 13.4785 51.2969 13.3464 51.3516 13.2051C51.4108 13.0638 51.4404 12.9317 51.4404 12.8086C51.4404 12.681 51.4108 12.5489 51.3516 12.4121C51.2969 12.2709 51.2035 12.1387 51.0713 12.0157L45.6572 6.97073C45.4613 6.78388 45.2881 6.65172 45.1377 6.57425C44.9919 6.49222 44.8278 6.4512 44.6455 6.4512C44.3766 6.4512 44.1533 6.54463 43.9756 6.73148C43.8024 6.91377 43.7158 7.1348 43.7158 7.39456V9.84183H43.5449C42.36 9.84183 41.3324 10.0264 40.4619 10.3955C39.596 10.7601 38.8783 11.291 38.3086 11.9883C37.7435 12.6856 37.3219 13.5287 37.0439 14.5176C36.766 15.502 36.627 16.614 36.627 17.8535C36.627 18.2774 36.7067 18.5964 36.8662 18.8106C37.0303 19.0293 37.2308 19.1387 37.4678 19.1387C37.6455 19.1387 37.8141 19.1 37.9736 19.0225C38.1377 18.945 38.2858 18.7832 38.418 18.5371C38.778 17.8627 39.1973 17.3249 39.6758 16.9239C40.1543 16.5228 40.7103 16.2334 41.3438 16.0557C41.9772 15.878 42.7109 15.7891 43.5449 15.7891H43.7158V18.2569C43.7158 18.5166 43.8024 18.7331 43.9756 18.9063C44.1533 19.0795 44.3743 19.166 44.6387 19.166Z" fill="#FB5622"/>
</svg>
