<svg width="16" height="18" viewBox="0 0 16 18" fill="none" xmlns="http://www.w3.org/2000/svg">
<path d="M8 8.62499C6.48333 7.20832 4.56667 6.21666 2.43333 5.83332C1.425 5.65832 0.5 6.45832 0.5 7.48332V12.6833C0.5 14.0833 1.1 14.8167 1.925 14.925C4.00833 15.1917 5.9 16.05 7.45 17.3167C7.74167 17.5583 8.21667 17.5833 8.50833 17.35C10.0667 16.075 11.975 15.2 14.075 14.9333C14.8583 14.825 15.5 14.05 15.5 13.25V7.48332C15.5 6.45832 14.575 5.65832 13.5667 5.83332C11.4333 6.21666 9.51667 7.20832 8 8.62499ZM8 5.66666C9.38333 5.66666 10.5 4.54999 10.5 3.16666C10.5 1.78332 9.38333 0.666656 8 0.666656C6.61667 0.666656 5.5 1.78332 5.5 3.16666C5.5 4.54999 6.61667 5.66666 8 5.66666Z" fill="#6C737F"/>
</svg>
