<svg width="21" height="21" viewBox="0 0 21 21" fill="none" xmlns="http://www.w3.org/2000/svg">
<path d="M9 2.37207H5.8C4.12 2.37207 3.28 2.37207 2.638 2.69907C2.07354 2.98668 1.61462 3.44561 1.327 4.01007C1 4.65207 1 5.49207 1 7.17207V12.3721C1 13.3021 1 13.7671 1.102 14.1491C1.23856 14.6576 1.50654 15.1212 1.87902 15.4933C2.25151 15.8654 2.71537 16.133 3.224 16.2691C3.605 16.3721 4.07 16.3721 5 16.3721V18.7071C5 19.2401 5 19.5071 5.11 19.6441C5.15676 19.7026 5.21609 19.7499 5.2836 19.7825C5.3511 19.815 5.42506 19.832 5.5 19.8321C5.676 19.8321 5.884 19.6651 6.3 19.3321L8.685 17.4241C9.172 17.0341 9.416 16.8391 9.687 16.7001C9.928 16.5781 10.184 16.4881 10.449 16.4331C10.748 16.3721 11.059 16.3721 11.684 16.3721H13.2C14.88 16.3721 15.72 16.3721 16.362 16.0451C16.9265 15.7575 17.3854 15.2985 17.673 14.7341C18 14.0921 18 13.2521 18 11.5721V11.3721M18.121 2.25107C18.4123 2.52661 18.6454 2.85776 18.8066 3.22495C18.9677 3.59213 19.0536 3.98789 19.0592 4.38884C19.0648 4.78979 18.9899 5.18779 18.839 5.55931C18.6882 5.93083 18.4643 6.26834 18.1808 6.55188C17.8973 6.83542 17.5598 7.05924 17.1882 7.21011C16.8167 7.36098 16.4187 7.43584 16.0178 7.43027C15.6168 7.42469 15.2211 7.33879 14.8539 7.17765C14.4867 7.0165 14.1555 6.78338 13.88 6.49207C13.3501 5.92337 13.0616 5.17118 13.0753 4.39398C13.089 3.61677 13.4039 2.87523 13.9535 2.32558C14.5032 1.77593 15.2447 1.46108 16.0219 1.44737C16.7991 1.43365 17.5513 1.72215 18.12 2.25207L18.121 2.25107Z" stroke="black" stroke-width="2" stroke-linecap="round" stroke-linejoin="round"/>
</svg>
