<svg width="40" height="40" viewBox="0 0 40 40" fill="none" xmlns="http://www.w3.org/2000/svg">
<path d="M23 9.25H17C16.7 9.25 16.406 9.26 16.121 9.274C16.0813 9.26294 16.0409 9.25491 16 9.25C15.9105 9.25156 15.822 9.26952 15.739 9.303C11.213 9.655 9.25 12.011 9.25 17V23C9.25 27.989 11.213 30.345 15.739 30.7C15.8222 30.7325 15.9107 30.7494 16 30.75C16.0409 30.7451 16.0813 30.7371 16.121 30.726C16.406 30.74 16.696 30.75 17 30.75H23C28.432 30.75 30.75 28.433 30.75 23V17C30.75 11.567 28.432 9.25 23 9.25ZM15.25 29.15C11.968 28.736 10.75 26.975 10.75 23.002V17C10.75 13.027 11.968 11.266 15.25 10.852V29.15ZM29.25 23C29.25 27.614 27.614 29.25 23 29.25H17C16.913 29.25 16.835 29.25 16.75 29.244V10.756C16.835 10.756 16.913 10.75 17 10.75H23C27.614 10.75 29.25 12.386 29.25 17V23ZM23.53 17.971L21.5 20L23.529 22.029C23.6007 22.0982 23.6578 22.1809 23.6972 22.2724C23.7365 22.3639 23.7573 22.4623 23.7582 22.5618C23.7591 22.6614 23.7402 22.7602 23.7025 22.8524C23.6648 22.9446 23.6092 23.0283 23.5388 23.0988C23.4684 23.1692 23.3847 23.225 23.2925 23.2627C23.2004 23.3005 23.1016 23.3195 23.0021 23.3187C22.9025 23.3179 22.804 23.2972 22.7125 23.258C22.621 23.2187 22.5382 23.1616 22.469 23.09L19.909 20.53C19.8393 20.4604 19.7841 20.3778 19.7464 20.2869C19.7087 20.1959 19.6892 20.0984 19.6892 20C19.6892 19.9016 19.7087 19.8041 19.7464 19.7131C19.7841 19.6222 19.8393 19.5396 19.909 19.47L22.469 16.91C22.6105 16.7734 22.8 16.6979 22.9967 16.6997C23.1933 16.7015 23.3814 16.7805 23.5204 16.9196C23.6594 17.0588 23.7381 17.2469 23.7398 17.4435C23.7414 17.6402 23.6667 17.8296 23.53 17.971Z" fill="#6C737F"/>
</svg>
